<svg width="102" height="30" viewBox="0 0 102 30" fill="none" xmlns="http://www.w3.org/2000/svg">
<path fill-rule="evenodd" clip-rule="evenodd" d="M97.9646 30H3.83134C1.75528 30 0.0645142 28.3092 0.0645142 26.25V3.74999C0.0645142 1.68329 1.75528 0 3.83134 0H97.9646C100.039 0 101.731 1.68329 101.731 3.74999V26.25C101.731 28.3092 100.039 30 97.9646 30Z" fill="black"/>
<path d="M53.6241 9.92433C52.9452 9.92433 52.3729 9.6868 51.9203 9.21922C51.4714 8.76473 51.2208 8.13817 51.232 7.49852C51.232 6.81585 51.4639 6.23793 51.9203 5.7797C52.371 5.31212 52.9433 5.07458 53.6223 5.07458C54.2937 5.07458 54.866 5.31212 55.3261 5.7797C55.7825 6.25289 56.0144 6.83082 56.0144 7.49852C56.0069 8.18306 55.775 8.76099 55.3261 9.21735C54.8754 9.68867 54.3031 9.92433 53.6241 9.92433ZM33.4228 9.92433C32.7588 9.92433 32.1828 9.69054 31.7115 9.22857C31.2439 8.76847 31.0063 8.1868 31.0063 7.50039C31.0063 6.81398 31.2439 6.23231 31.7115 5.77222C32.1734 5.31025 32.7495 5.07646 33.4228 5.07646C33.752 5.07646 34.0718 5.14192 34.3785 5.27471C34.6797 5.40376 34.9247 5.57957 35.1061 5.79466L35.151 5.8489L34.6441 6.3464L34.5918 6.28468C34.3056 5.94428 33.9222 5.77783 33.4153 5.77783C32.9627 5.77783 32.5681 5.93867 32.2426 6.25663C31.9153 6.57645 31.7489 6.99541 31.7489 7.50226C31.7489 8.00912 31.9153 8.42807 32.2426 8.7479C32.5681 9.06585 32.9627 9.2267 33.4153 9.2267C33.8979 9.2267 34.3037 9.06585 34.6198 8.7479C34.8068 8.56086 34.9228 8.29902 34.9639 7.96797H33.3386V7.26847H35.6616L35.6709 7.33206C35.6878 7.44989 35.7046 7.57146 35.7046 7.68368C35.7046 8.32894 35.5101 8.85076 35.1248 9.23605C34.6871 9.69241 34.1148 9.92433 33.4228 9.92433ZM60.2825 9.8252H59.5662L57.3723 6.31461L57.391 6.94678V9.82333H56.6746V5.17558H57.492L57.5144 5.21112L59.5774 8.51785L59.5587 7.88755V5.17558H60.2825V9.8252ZM48.2414 9.8252H47.5157V5.87508H46.2569V5.17558H49.4982V5.87508H48.2395V9.8252H48.2414ZM45.6659 9.8252H44.9421V5.17558H45.6659V9.8252ZM41.598 9.8252H40.8742V5.87508H39.6154V5.17558H42.8567V5.87508H41.598V9.8252ZM39.1572 9.81772H36.3816V5.17558H39.1572V5.87508H37.1073V7.15064H38.9571V7.84266H37.1073V9.11822H39.1572V9.81772ZM52.4514 8.73855C52.775 9.06211 53.1678 9.22483 53.6241 9.22483C54.0936 9.22483 54.477 9.06585 54.7968 8.73855C55.1148 8.42059 55.2756 8.00351 55.2756 7.50039C55.2756 6.99728 55.1148 6.57832 54.7987 6.26224C54.4751 5.93867 54.0805 5.77596 53.626 5.77596C53.1566 5.77596 52.7731 5.93493 52.4552 6.26224C52.1372 6.58019 51.9764 6.99728 51.9764 7.50039C51.9764 8.00351 52.1354 8.42246 52.4514 8.73855Z" fill="white"/>
<path fill-rule="evenodd" clip-rule="evenodd" d="M51.1636 16.3174C49.3962 16.3174 47.9635 17.6584 47.9635 19.5081C47.9635 21.341 49.4055 22.6989 51.1636 22.6989C52.9311 22.6989 54.3637 21.3485 54.3637 19.5081C54.3637 17.6584 52.9311 16.3174 51.1636 16.3174ZM51.1636 21.4346C50.1967 21.4346 49.3644 20.6341 49.3644 19.5006C49.3644 18.3504 50.1985 17.5667 51.1636 17.5667C52.1306 17.5667 52.9629 18.3504 52.9629 19.5006C52.9647 20.6415 52.1306 21.4346 51.1636 21.4346ZM44.1817 16.3174C42.4143 16.3174 40.9816 17.6584 40.9816 19.5081C40.9816 21.341 42.4236 22.6989 44.1817 22.6989C45.9492 22.6989 47.3818 21.3485 47.3818 19.5081C47.3818 17.6584 45.9473 16.3174 44.1817 16.3174ZM44.1817 21.4346C43.2148 21.4346 42.3825 20.6341 42.3825 19.5006C42.3825 18.3504 43.2166 17.5667 44.1817 17.5667C45.1487 17.5667 45.981 18.3504 45.981 19.5006C45.981 20.6415 45.1487 21.4346 44.1817 21.4346ZM35.8738 17.2918V18.6422H39.115C39.0159 19.3996 38.7653 19.9589 38.3819 20.3423C37.9068 20.8173 37.1736 21.3336 35.8812 21.3336C33.8893 21.3336 32.3314 19.7251 32.3314 17.7332C32.3314 15.7413 33.8893 14.1328 35.8812 14.1328C36.9567 14.1328 37.7403 14.5574 38.322 15.0998L39.2796 14.1422C38.4716 13.3679 37.3962 12.775 35.8887 12.775C33.1562 12.775 30.8632 15.0006 30.8632 17.7257C30.8632 20.4582 33.1543 22.6764 35.8887 22.6764C37.3644 22.6764 38.4716 22.1939 39.3469 21.2849C40.2391 20.3928 40.5215 19.1341 40.5215 18.1185C40.5215 17.8024 40.4972 17.5181 40.4467 17.2768H35.8719C35.8738 17.275 35.8738 17.2918 35.8738 17.2918ZM69.8556 18.3429C69.5882 17.6266 68.7802 16.3099 67.1231 16.3099C65.4809 16.3099 64.1156 17.6023 64.1156 19.5006C64.1156 21.2924 65.466 22.6914 67.2821 22.6914C68.7409 22.6914 69.59 21.7993 69.9398 21.2756L68.8569 20.5499C68.4978 21.0829 67.9984 21.4327 67.2895 21.4327C66.5732 21.4327 66.072 21.1072 65.739 20.4657L70.0052 18.6983C70.0052 18.7001 69.8556 18.3429 69.8556 18.3429ZM65.5052 19.409C65.4716 18.1764 66.4629 17.5499 67.1717 17.5499C67.7309 17.5499 68.1966 17.8248 68.3556 18.2251L65.5052 19.409ZM62.0395 22.5006H63.4404V13.1266H62.0395V22.5006ZM59.7391 17.0262H59.6886C59.3725 16.6503 58.7721 16.3099 58.0053 16.3099C56.4136 16.3099 54.9473 17.7107 54.9473 19.51C54.9473 21.3018 56.4061 22.6858 58.0053 22.6858C58.7627 22.6858 59.3725 22.3435 59.6886 21.9601H59.7391V22.4183C59.7391 23.6359 59.0882 24.2924 58.0389 24.2924C57.1805 24.2924 56.6474 23.6752 56.4305 23.159L55.2129 23.6677C55.5626 24.5094 56.4959 25.5511 58.0371 25.5511C59.6792 25.5511 61.0707 24.5842 61.0707 22.2257V16.5006H59.7465V17.0262C59.7484 17.0262 59.7391 17.0262 59.7391 17.0262ZM58.1306 21.4346C57.1636 21.4346 56.3556 20.6266 56.3556 19.51C56.3556 18.3841 57.1636 17.5686 58.1306 17.5686C59.0882 17.5686 59.8307 18.3934 59.8307 19.51C59.84 20.6266 59.0901 21.4346 58.1306 21.4346ZM76.4148 13.1266H73.0651V22.5006H74.466V18.9508H76.4167C77.9672 18.9508 79.4915 17.8267 79.4915 16.0424C79.4915 14.2581 77.9728 13.1266 76.4148 13.1266ZM76.456 17.6415H74.4641V14.4246H76.456C77.5052 14.4246 78.0981 15.2905 78.0981 16.0331C78.0981 16.7681 77.4977 17.6415 76.456 17.6415ZM85.1062 16.3005C84.0888 16.3005 83.0395 16.7513 82.6056 17.7332L83.8475 18.2494C84.1149 17.7332 84.605 17.5574 85.123 17.5574C85.8487 17.5574 86.5819 17.9913 86.5987 18.7656V18.8647C86.3481 18.7226 85.7982 18.5056 85.1399 18.5056C83.7989 18.5056 82.4391 19.2388 82.4391 20.6135C82.4391 21.8722 83.5389 22.6802 84.764 22.6802C85.7047 22.6802 86.2228 22.2556 86.5464 21.7637H86.5969V22.4894H87.9472V18.8984C87.9472 17.2263 86.7053 16.3005 85.1062 16.3005ZM84.9304 21.4346C84.4722 21.4346 83.8307 21.2101 83.8307 20.6341C83.8307 19.9084 84.6312 19.6334 85.3138 19.6334C85.931 19.6334 86.2228 19.7662 86.5894 19.9495C86.4884 20.7912 85.7777 21.4271 84.9304 21.4346ZM92.8737 16.5006L91.2652 20.5667H91.2147L89.5482 16.5006H88.0407L90.5414 22.1845L89.1162 25.3435H90.575L94.4223 16.5006H92.8737ZM80.264 22.5006H81.6648V13.1266H80.264V22.5006Z" fill="white"/>
<path fill-rule="evenodd" clip-rule="evenodd" d="M7.89036 5.65139C7.67341 5.88518 7.5481 6.24241 7.5481 6.70999V23.2941C7.5481 23.7617 7.67341 24.1189 7.89785 24.3434L7.95583 24.3939L17.2476 15.1021V14.8945L7.94834 5.60089L7.89036 5.65139Z" fill="url(#paint0_linear)"/>
<path fill-rule="evenodd" clip-rule="evenodd" d="M20.3395 18.2075L17.2404 15.1084V14.8914L20.3395 11.7923L20.4068 11.8334L24.0726 13.917C25.1219 14.508 25.1219 15.4843 24.0726 16.0828L20.4068 18.1664L20.3395 18.2075Z" fill="url(#paint1_linear)"/>
<path fill-rule="evenodd" clip-rule="evenodd" d="M20.4061 18.1666L17.2397 15.0002L7.88995 24.3499C8.23222 24.7165 8.80641 24.7576 9.44793 24.4004L20.4061 18.1666Z" fill="url(#paint2_linear)"/>
<path fill-rule="evenodd" clip-rule="evenodd" d="M20.4061 11.8335L9.44793 5.60908C8.80641 5.2425 8.23035 5.293 7.88995 5.65958L17.2397 15L20.4061 11.8335Z" fill="url(#paint3_linear)"/>
<path opacity="0.2" fill-rule="evenodd" clip-rule="evenodd" d="M20.3391 18.0988L9.45568 24.282C8.84783 24.6318 8.30544 24.6075 7.95569 24.2895L7.89771 24.3475L7.95569 24.398C8.30544 24.7141 8.84783 24.7403 9.45568 24.3905L20.4139 18.1661L20.3391 18.0988Z" fill="black"/>
<path opacity="0.12" fill-rule="evenodd" clip-rule="evenodd" d="M24.0714 15.9746L20.3289 18.0993L20.3962 18.1666L24.062 16.0831C24.5876 15.7838 24.8457 15.3911 24.8457 15.0002C24.8139 15.3593 24.5464 15.6997 24.0714 15.9746Z" fill="black"/>
<path opacity="0.25" fill-rule="evenodd" clip-rule="evenodd" d="M9.44834 5.71796L24.0724 14.0259C24.5474 14.2934 24.8149 14.6431 24.856 15.0004C24.856 14.6095 24.5979 14.2167 24.0724 13.9174L9.44834 5.60948C8.39909 5.00911 7.5481 5.51035 7.5481 6.70923V6.81771C7.5481 5.61696 8.39909 5.12507 9.44834 5.71796Z" fill="white"/>
<defs>
<linearGradient id="paint0_linear" x1="16.4141" y1="6.53107" x2="1.53034" y2="10.4969" gradientUnits="userSpaceOnUse">
<stop stop-color="#00A0FF"/>
<stop offset="0.00657" stop-color="#00A1FF"/>
<stop offset="0.2601" stop-color="#00BEFF"/>
<stop offset="0.5122" stop-color="#00D2FF"/>
<stop offset="0.7604" stop-color="#00DFFF"/>
<stop offset="1" stop-color="#00E3FF"/>
</linearGradient>
<linearGradient id="paint1_linear" x1="25.441" y1="14.9999" x2="7.29333" y2="14.9999" gradientUnits="userSpaceOnUse">
<stop stop-color="#FFE000"/>
<stop offset="0.4087" stop-color="#FFBD00"/>
<stop offset="0.7754" stop-color="#FFA500"/>
<stop offset="1" stop-color="#FF9C00"/>
</linearGradient>
<linearGradient id="paint2_linear" x1="18.6843" y1="16.7232" x2="6.73571" y2="36.8337" gradientUnits="userSpaceOnUse">
<stop stop-color="#FF3A44"/>
<stop offset="1" stop-color="#C31162"/>
</linearGradient>
<linearGradient id="paint3_linear" x1="5.53559" y1="0.134081" x2="10.8664" y2="9.11576" gradientUnits="userSpaceOnUse">
<stop stop-color="#32A071"/>
<stop offset="0.0685" stop-color="#2DA771"/>
<stop offset="0.4762" stop-color="#15CF74"/>
<stop offset="0.8009" stop-color="#06E775"/>
<stop offset="1" stop-color="#00F076"/>
</linearGradient>
</defs>
</svg>
