<svg width="92" height="30" viewBox="0 0 92 30" fill="none" xmlns="http://www.w3.org/2000/svg">
<path d="M91.687 25.9402C91.687 28.1722 89.8769 30 87.6273 30H4.05975C1.81019 30 0 28.1722 0 25.9402V4.05975C0 1.81019 1.81019 0 4.05975 0H87.6449C89.8769 0 91.7046 1.81019 91.7046 4.05975V25.9402H91.687Z" fill="black"/>
<path d="M23.9027 19.8241C23.4106 20.8962 23.1821 21.3883 22.567 22.3373C21.6882 23.673 20.458 25.325 18.9466 25.325C17.5933 25.3426 17.2419 24.4463 15.4141 24.4463C13.5863 24.4639 13.1997 25.325 11.8464 25.325C10.3174 25.3074 9.13993 23.8312 8.27878 22.4955C5.8359 18.7872 5.58985 14.4287 7.0837 12.1089C8.15575 10.4568 9.84292 9.50781 11.4246 9.50781C13.0415 9.50781 14.0608 10.3865 15.3965 10.3865C16.697 10.3865 17.4879 9.50781 19.3508 9.50781C20.7568 9.50781 22.2506 10.2811 23.3227 11.5992C19.8253 13.5148 20.3877 18.4885 23.9027 19.8241Z" fill="white"/>
<path d="M17.9266 8.01356C18.6121 7.13483 19.1217 5.92217 18.9284 4.6568C17.8212 4.7271 16.5207 5.43008 15.765 6.36154C15.0795 7.18755 14.5172 8.43535 14.7281 9.63043C15.9407 9.66558 17.1885 8.94502 17.9266 8.01356Z" fill="white"/>
<path d="M35.014 14.0174L32.0339 22.778H33.3967L34.2802 20.0824H37.1555L38.069 22.778H39.4767L36.4816 14.0174H35.014ZM35.7179 15.455C35.8227 15.8444 35.9275 16.2487 36.0623 16.698L36.871 19.0192H34.5947L35.3884 16.683C35.5082 16.2936 35.613 15.8893 35.7179 15.455Z" fill="white"/>
<path d="M43.3402 16.2926C42.4417 16.2926 41.7079 16.637 41.2287 17.3109L41.1688 16.4424H39.9558V16.5472C39.9858 17.0863 40.0007 17.6853 40.0007 18.5389V25.2928H41.3335V22.148C41.7379 22.6421 42.3968 22.9267 43.1456 22.9267C43.9243 22.9267 44.6281 22.6272 45.1522 22.0731C45.7363 21.4591 46.0358 20.5755 46.0358 19.5273C46.0358 18.5988 45.7662 17.7901 45.2721 17.2061C44.7928 16.6071 44.104 16.2926 43.3402 16.2926ZM43.0108 17.3858C44.1938 17.3858 44.718 18.479 44.718 19.5722C44.718 20.9649 44.0441 21.8335 42.9509 21.8335C42.2021 21.8335 41.5731 21.3243 41.3934 20.6055C41.3635 20.4857 41.3485 20.3509 41.3485 20.1712V19.108C41.3485 19.0181 41.3635 18.8983 41.3934 18.7785C41.3934 18.7486 41.4084 18.7036 41.4084 18.6737C41.6031 17.9099 42.262 17.3858 43.0108 17.3858Z" fill="white"/>
<path d="M50.1695 16.2926C49.271 16.2926 48.5372 16.637 48.058 17.3109L47.9981 16.4424H46.8V16.5472C46.83 17.0863 46.845 17.6853 46.845 18.5389V25.2928H48.1778V22.148C48.5821 22.6421 49.241 22.9267 49.9898 22.9267C50.7685 22.9267 51.4724 22.6272 51.9965 22.0731C52.5805 21.4591 52.88 20.5755 52.88 19.5273C52.88 18.5988 52.6105 17.7901 52.1163 17.2061C51.6221 16.6071 50.9332 16.2926 50.1695 16.2926ZM49.84 17.3858C51.0231 17.3858 51.5472 18.479 51.5472 19.5722C51.5472 20.9649 50.8733 21.8335 49.7801 21.8335C49.0463 21.8335 48.4024 21.3243 48.2227 20.6055C48.1928 20.4857 48.1778 20.3509 48.1778 20.1712V19.108C48.1778 19.0181 48.1928 18.8983 48.2227 18.7785C48.2227 18.7486 48.2377 18.7036 48.2377 18.6737C48.4324 17.9099 49.0913 17.3858 49.84 17.3858Z" fill="white"/>
<path d="M58.7207 17.7311C57.4777 17.2519 57.0884 16.8775 57.0884 16.1736C57.0884 15.5896 57.5526 14.9906 58.6009 14.9906C59.4545 14.9906 60.0085 15.2901 60.1583 15.3799L60.2781 15.4548L60.6525 14.3466L60.5776 14.3017C60.353 14.1669 59.724 13.8674 58.6458 13.8674C56.9536 13.8674 55.7705 14.8708 55.7705 16.2934C55.7705 17.4465 56.5043 18.2552 58.0917 18.8243C59.2149 19.2436 59.6342 19.6779 59.6342 20.4116C59.6342 21.2503 58.9902 21.7594 57.942 21.7594C57.2681 21.7594 56.5642 21.5647 56.0251 21.2203L55.9053 21.1454L55.5459 22.2836L55.6058 22.3285C56.1 22.6579 57.0434 22.8976 57.8521 22.8976C60.1283 22.8976 60.937 21.5048 60.937 20.3218C60.952 19.1088 60.3081 18.36 58.7207 17.7311Z" fill="white"/>
<path d="M63.3317 14.9165L62.0289 15.3208V16.429H61.0704V17.4923H62.0289V20.7419C62.0289 21.5206 62.1786 22.0747 62.4931 22.4191C62.7926 22.7486 63.2419 22.9283 63.781 22.9283C64.2752 22.9283 64.6346 22.8235 64.7993 22.7636L64.8742 22.7336L64.8143 21.6704L64.6945 21.7153C64.5297 21.7602 64.35 21.7902 64.0805 21.7902C63.5713 21.7902 63.3467 21.4607 63.3467 20.697V17.4923H64.949V16.429H63.3467V14.9165H63.3317Z" fill="white"/>
<path d="M68.2285 16.2926C66.3716 16.2926 65.0837 17.6703 65.0837 19.6621C65.0837 21.5789 66.3416 22.9267 68.1386 22.9267H68.1536C69.6661 22.9267 71.2984 21.8634 71.2984 19.5422C71.2984 18.5988 71.0139 17.7901 70.4598 17.1911C69.8758 16.6071 69.112 16.2926 68.2285 16.2926ZM68.1836 17.3259C69.3816 17.3259 69.9207 18.494 69.9207 19.5722C69.9207 20.905 69.1869 21.8634 68.1536 21.8634H68.1386C67.1353 21.8634 66.4015 20.92 66.4015 19.6021C66.4165 18.479 66.9556 17.3259 68.1836 17.3259Z" fill="white"/>
<path d="M75.3432 16.3525L75.2683 16.3375C75.1485 16.3076 75.0586 16.2926 74.9388 16.2926C74.25 16.2926 73.621 16.6969 73.2766 17.3559L73.2316 16.4274H72.0486L72.0636 16.5322C72.0935 17.0563 72.1085 17.6404 72.1085 18.4341L72.0935 22.7619H73.4263V19.3775C73.4263 19.1978 73.4413 19.0181 73.4563 18.8684C73.606 18.0597 74.1601 17.5356 74.849 17.5356C74.9837 17.5356 75.0886 17.5505 75.2084 17.5505L75.3432 17.5655V16.3525Z" fill="white"/>
<path d="M78.3223 16.2791C76.5552 16.2791 75.3273 17.6867 75.3273 19.7084C75.3273 21.6552 76.5552 22.9131 78.4571 22.9131C79.4605 22.9131 80.1493 22.6885 80.5537 22.5088L80.6285 22.4788L80.374 21.4905L80.2691 21.5354C79.9097 21.6851 79.4305 21.8349 78.6069 21.8349C78.0378 21.8349 76.705 21.6402 76.6151 19.9181L80.8981 19.933L80.9131 19.8432C80.943 19.7084 80.958 19.5287 80.958 19.2891C80.958 17.8964 80.2691 16.2791 78.3223 16.2791ZM78.2325 17.2824C78.6368 17.2824 78.9663 17.4022 79.2059 17.6568C79.5803 18.0461 79.6551 18.6152 79.6551 18.8848H76.6301C76.7649 18.121 77.2441 17.2824 78.2325 17.2824Z" fill="white"/>
<path d="M35.1905 10.1868H33.3557L32.9718 11.2896H32.1163L33.9055 6.5531H34.6439L36.4364 11.2896H35.5776L35.1905 10.1868ZM33.5867 9.5232H34.9595L34.2731 7.55831L33.5867 9.5232Z" fill="white"/>
<path d="M37.9784 10.2877L38.7234 7.76976H39.5399L38.32 11.2896H37.6336L36.4039 7.76976H37.2237L37.9784 10.2877Z" fill="white"/>
<path d="M42.0871 11.2896C42.0524 11.2224 42.022 11.1129 41.996 10.9611C41.7444 11.2235 41.4365 11.3547 41.0721 11.3547C40.7186 11.3547 40.4302 11.2539 40.2068 11.0522C39.9834 10.8505 39.8717 10.6011 39.8717 10.3039C39.8717 9.92875 40.0105 9.64139 40.2881 9.44187C40.5679 9.24018 40.9669 9.13933 41.4853 9.13933H41.97V8.90836C41.97 8.72618 41.919 8.58088 41.8171 8.47244C41.7152 8.36183 41.5601 8.30653 41.3519 8.30653C41.1719 8.30653 41.0244 8.35207 40.9095 8.44316C40.7945 8.53208 40.737 8.64594 40.737 8.78474H39.9465C39.9465 8.59172 40.0105 8.41171 40.1385 8.24472C40.2664 8.07556 40.4399 7.94326 40.659 7.84784C40.8802 7.75241 41.1263 7.7047 41.3974 7.7047C41.8095 7.7047 42.1381 7.8088 42.3831 8.017C42.6282 8.22303 42.754 8.51365 42.7605 8.88884V10.4764C42.7605 10.793 42.805 11.0457 42.8939 11.2343V11.2896H42.0871ZM41.2185 10.7203C41.3747 10.7203 41.5211 10.6824 41.6577 10.6065C41.7965 10.5306 41.9006 10.4287 41.97 10.3007V9.63706H41.5438C41.251 9.63706 41.0309 9.68802 40.8834 9.78995C40.736 9.89189 40.6622 10.0361 40.6622 10.2226C40.6622 10.3744 40.7121 10.4959 40.8119 10.587C40.9138 10.6759 41.0493 10.7203 41.2185 10.7203Z" fill="white"/>
<path d="M44.4293 11.2896H43.6388V7.76976H44.4293V11.2896ZM43.59 6.85564C43.59 6.73419 43.628 6.63334 43.7039 6.5531C43.782 6.47285 43.8926 6.43273 44.0357 6.43273C44.1789 6.43273 44.2895 6.47285 44.3675 6.5531C44.4456 6.63334 44.4846 6.73419 44.4846 6.85564C44.4846 6.97492 44.4456 7.07468 44.3675 7.15492C44.2895 7.233 44.1789 7.27204 44.0357 7.27204C43.8926 7.27204 43.782 7.233 43.7039 7.15492C43.628 7.07468 43.59 6.97492 43.59 6.85564Z" fill="white"/>
<path d="M46.134 11.2896H45.3435V6.29285H46.134V11.2896Z" fill="white"/>
<path d="M49.1008 11.2896C49.0661 11.2224 49.0358 11.1129 49.0097 10.9611C48.7582 11.2235 48.4502 11.3547 48.0859 11.3547C47.7323 11.3547 47.4439 11.2539 47.2205 11.0522C46.9971 10.8505 46.8855 10.6011 46.8855 10.3039C46.8855 9.92875 47.0243 9.64139 47.3019 9.44187C47.5816 9.24018 47.9807 9.13933 48.499 9.13933H48.9837V8.90836C48.9837 8.72618 48.9328 8.58088 48.8308 8.47244C48.7289 8.36183 48.5738 8.30653 48.3656 8.30653C48.1856 8.30653 48.0381 8.35207 47.9232 8.44316C47.8083 8.53208 47.7508 8.64594 47.7508 8.78474H46.9603C46.9603 8.59172 47.0243 8.41171 47.1522 8.24472C47.2802 8.07556 47.4537 7.94326 47.6727 7.84784C47.8939 7.75241 48.1401 7.7047 48.4112 7.7047C48.8232 7.7047 49.1518 7.8088 49.3969 8.017C49.6419 8.22303 49.7677 8.51365 49.7742 8.88884V10.4764C49.7742 10.793 49.8187 11.0457 49.9076 11.2343V11.2896H49.1008ZM48.2322 10.7203C48.3884 10.7203 48.5348 10.6824 48.6714 10.6065C48.8102 10.5306 48.9143 10.4287 48.9837 10.3007V9.63706H48.5576C48.2648 9.63706 48.0446 9.68802 47.8972 9.78995C47.7497 9.89189 47.676 10.0361 47.676 10.2226C47.676 10.3744 47.7258 10.4959 47.8256 10.587C47.9275 10.6759 48.0631 10.7203 48.2322 10.7203Z" fill="white"/>
<path d="M53.691 9.56549C53.691 10.112 53.5685 10.5468 53.3234 10.87C53.0805 11.1931 52.7454 11.3547 52.3182 11.3547C51.9061 11.3547 51.5851 11.2061 51.3552 10.909L51.3162 11.2896H50.6005V6.29285H51.391V8.10809C51.6187 7.83916 51.9256 7.7047 52.3117 7.7047C52.7411 7.7047 53.0783 7.86411 53.3234 8.18291C53.5685 8.50172 53.691 8.9474 53.691 9.51994V9.56549ZM52.9005 9.49717C52.9005 9.11547 52.8332 8.8292 52.6988 8.63835C52.5643 8.4475 52.3691 8.35207 52.1132 8.35207C51.7706 8.35207 51.5298 8.50172 51.391 8.801V10.2519C51.532 10.5577 51.7749 10.7106 52.1197 10.7106C52.367 10.7106 52.5578 10.6184 52.6923 10.4341C52.8267 10.2497 52.8961 9.97104 52.9005 9.59802V9.49717Z" fill="white"/>
<path d="M55.1972 11.2896H54.4067V6.29285H55.1972V11.2896Z" fill="white"/>
<path d="M57.611 11.3547C57.11 11.3547 56.7034 11.1975 56.3911 10.883C56.0809 10.5664 55.9259 10.1456 55.9259 9.62079V9.5232C55.9259 9.17186 55.9931 8.85848 56.1276 8.58305C56.2642 8.30545 56.4551 8.08966 56.7001 7.93567C56.9452 7.78169 57.2185 7.7047 57.5199 7.7047C57.9992 7.7047 58.369 7.8576 58.6292 8.16339C58.8916 8.46919 59.0229 8.90185 59.0229 9.46139V9.78019H56.7229C56.7468 10.0708 56.8433 10.3007 57.0124 10.4699C57.1838 10.639 57.3985 10.7236 57.6565 10.7236C58.0187 10.7236 58.3137 10.5772 58.5414 10.2844L58.9676 10.6911C58.8266 10.9014 58.6379 11.0652 58.4015 11.1823C58.1673 11.2972 57.9038 11.3547 57.611 11.3547ZM57.5167 8.33906C57.2998 8.33906 57.1241 8.41497 56.9897 8.56678C56.8574 8.71859 56.7728 8.93005 56.7359 9.20114H58.2421V9.14258C58.2248 8.878 58.1543 8.67847 58.0307 8.54401C57.907 8.40738 57.7357 8.33906 57.5167 8.33906Z" fill="white"/>
<path d="M61.1504 9.49717C61.1504 9.15234 61.2187 8.84221 61.3553 8.56678C61.492 8.28918 61.6839 8.07664 61.9311 7.92917C62.1784 7.77952 62.4625 7.7047 62.7835 7.7047C63.2584 7.7047 63.6434 7.8576 63.9383 8.16339C64.2354 8.46919 64.3959 8.87474 64.4198 9.38006L64.423 9.56549C64.423 9.91249 64.3558 10.2226 64.2213 10.4959C64.0891 10.7691 63.8982 10.9806 63.6488 11.1302C63.4016 11.2799 63.1153 11.3547 62.79 11.3547C62.2933 11.3547 61.8954 11.1899 61.5961 10.8602C61.299 10.5284 61.1504 10.0871 61.1504 9.53621V9.49717ZM61.9409 9.56549C61.9409 9.92767 62.0157 10.2118 62.1654 10.4178C62.315 10.6217 62.5232 10.7236 62.79 10.7236C63.0567 10.7236 63.2638 10.6195 63.4113 10.4113C63.561 10.2031 63.6358 9.89839 63.6358 9.49717C63.6358 9.1415 63.5588 8.85956 63.4048 8.65136C63.253 8.44316 63.0459 8.33906 62.7835 8.33906C62.5254 8.33906 62.3204 8.44208 62.1686 8.64811C62.0168 8.85197 61.9409 9.15776 61.9409 9.56549Z" fill="white"/>
<path d="M65.8251 7.76976L65.8479 8.17641C66.1082 7.86194 66.4497 7.7047 66.8726 7.7047C67.6057 7.7047 67.9787 8.12436 67.9917 8.96366V11.2896H67.2012V9.0092C67.2012 8.78582 67.1524 8.621 67.0548 8.51473C66.9594 8.40629 66.8022 8.35207 66.5831 8.35207C66.2643 8.35207 66.0268 8.4963 65.8707 8.78474V11.2896H65.0802V7.76976H65.8251Z" fill="white"/>
<path d="M71.4498 6.91419V7.76976H72.0711V8.35533H71.4498V10.3202C71.4498 10.4547 71.4758 10.5523 71.5279 10.613C71.5821 10.6716 71.6775 10.7008 71.8141 10.7008C71.9052 10.7008 71.9974 10.69 72.0907 10.6683V11.2799C71.9106 11.3298 71.7371 11.3547 71.5702 11.3547C70.9629 11.3547 70.6593 11.0196 70.6593 10.3495V8.35533H70.0802V7.76976H70.6593V6.91419H71.4498Z" fill="white"/>
<path d="M73.457 8.15363C73.715 7.85435 74.0414 7.7047 74.4362 7.7047C75.1865 7.7047 75.5672 8.13303 75.578 8.98969V11.2896H74.7875V9.01896C74.7875 8.77606 74.7344 8.60473 74.6281 8.50497C74.524 8.40304 74.37 8.35207 74.1661 8.35207C73.8495 8.35207 73.6131 8.49304 73.457 8.77498V11.2896H72.6665V6.29285H73.457V8.15363Z" fill="white"/>
<path d="M77.93 11.3547C77.429 11.3547 77.0224 11.1975 76.7101 10.883C76.4 10.5664 76.2449 10.1456 76.2449 9.62079V9.5232C76.2449 9.17186 76.3121 8.85848 76.4466 8.58305C76.5832 8.30545 76.7741 8.08966 77.0191 7.93567C77.2642 7.78169 77.5375 7.7047 77.8389 7.7047C78.3182 7.7047 78.688 7.8576 78.9482 8.16339C79.2107 8.46919 79.3419 8.90185 79.3419 9.46139V9.78019H77.0419C77.0658 10.0708 77.1623 10.3007 77.3314 10.4699C77.5028 10.639 77.7175 10.7236 77.9756 10.7236C78.3377 10.7236 78.6327 10.5772 78.8604 10.2844L79.2866 10.6911C79.1456 10.9014 78.9569 11.0652 78.7205 11.1823C78.4863 11.2972 78.2228 11.3547 77.93 11.3547ZM77.8357 8.33906C77.6188 8.33906 77.4431 8.41497 77.3087 8.56678C77.1764 8.71859 77.0918 8.93005 77.0549 9.20114H78.5611V9.14258C78.5438 8.878 78.4733 8.67847 78.3497 8.54401C78.226 8.40738 78.0547 8.33906 77.8357 8.33906Z" fill="white"/>
</svg>
